<svg id="Layer_1" data-name="Layer 1" xmlns="http://www.w3.org/2000/svg" viewBox="0 0 278.64 147.6"><defs><style>.cls-1,.cls-3{fill:blue;}.cls-1,.cls-2,.cls-4{stroke:blue;}.cls-1,.cls-2,.cls-3,.cls-4,.cls-5,.cls-6,.cls-7{stroke-miterlimit:10;}.cls-2,.cls-5{fill:none;}.cls-3{stroke:#fff;stroke-width:2px;}.cls-4,.cls-6{fill:#fff;}.cls-5,.cls-7{stroke:red;}.cls-6{stroke:#000;}.cls-7{fill:red;}</style></defs><polygon class="cls-1" points="38.96 21.83 38.96 52 26.89 52 26.89 2.24 27.14 2.24 38.96 21.83"/><line class="cls-2" x1="26.89" y1="2.24" x2="26.89" y2="1.84"/><polygon class="cls-3" points="99.97 0.77 99.97 147.32 82.8 147.32 82.8 88.19 21.92 88.19 21.92 147.32 2.75 147.32 2.75 0.77 21.92 0.77 21.92 56.77 82.8 56.77 82.8 0.77 99.97 0.77"/><polygon class="cls-4" points="79.08 3.74 79.08 52 66.45 52 66.45 24.67 79.08 3.74"/><polygon class="cls-1" points="79.08 2.24 79.08 3.74 66.45 24.67 59.93 35.46 53.72 25.17 53.13 24.19 65.71 3.37 66.38 2.24 79.08 2.24"/><polygon class="cls-1" points="59.93 35.46 53.56 46.02 47.35 35.73 38.96 21.83 27.14 2.24 39.89 2.24 53.13 24.19 53.72 25.17 59.93 35.46"/><line class="cls-5" x1="106.39" y1="20.91" x2="106.08" y2="20.91"/><line class="cls-2" x1="27.14" y1="2.24" x2="26.89" y2="1.84"/><polygon class="cls-6" points="157.08 1.49 157.08 18.86 137.21 18.86 136.82 147.6 120.09 147.6 120.48 18.86 100.39 18.86 100.39 1.49 157.08 1.49"/><polygon class="cls-7" points="205.36 1.24 205.36 11.25 173.08 11.45 159.25 11.54 159.25 1.53 173.08 1.45 205.36 1.24"/><polygon class="cls-6" points="173.08 39.27 173.08 57.51 205.36 57.3 205.36 67.31 173.08 67.51 159.25 67.6 159.25 11.54 173.08 11.45 173.08 29.26 205.36 29.07 205.36 39.06 173.08 39.27"/><polygon class="cls-6" points="173.27 136.92 207.24 136.72 207.24 147.06 173.27 147.27 158.71 147.36 158.71 79.06 173.27 78.97 207.24 78.76 207.24 89.1 173.27 89.31 173.27 136.92"/><polygon class="cls-6" points="277.97 0.39 277.97 146.89 259.97 147.07 259.97 84.45 229.17 84.79 229.17 147.4 211.17 147.6 211.17 1.1 229.17 0.92 229.17 62.6 259.97 62.27 259.97 0.57 277.97 0.39"/><polygon class="cls-1" points="77.4 91.78 77.4 142.5 77.16 142.5 65.6 122.54 65.6 91.78 77.4 91.78"/><line class="cls-2" x1="77.4" y1="142.91" x2="77.4" y2="142.5"/><polygon class="cls-4" points="38.73 91.78 38.73 119.64 26.38 140.97 26.38 91.78 38.73 91.78"/><polyline class="cls-1" points="51.74 120.13 64.7 142.5 77.16 142.5 65.6 122.54 57.4 108.37 51.33 97.88 45.1 108.64"/><line class="cls-2" x1="77.4" y1="142.91" x2="77.16" y2="142.5"/><polyline class="cls-1" points="45.1 108.64 38.73 119.64 26.38 140.97 26.38 142.5 38.79 142.5 39.45 141.36 51.74 120.13"/></svg>